<svg
  viewBox="0 0 220 220"
  width="220"
  height="220"
  role="img"
  aria-label="Pixel Teacher Bot"
  xmlns="http://www.w3.org/2000/svg"
  shape-rendering="crispEdges"
>
  <defs>
    <!-- Soft cyan glow -->
    <filter id="glow" x="-50%" y="-50%" width="200%" height="200%">
      <feGaussianBlur stdDeviation="2.2" result="blur" />
      <feColorMatrix
        in="blur"
        type="matrix"
        values="
          0 0 0 0 0
          0 0 0 0 0.9
          0 0 0 0 1
          0 0 0 .9 0"
        result="cyan"
      />
      <feMerge>
        <feMergeNode in="cyan" />
        <feMergeNode in="SourceGraphic" />
      </feMerge>
    </filter>

    <!-- Pixel shadow -->
    <filter id="shadow" x="-20%" y="-20%" width="140%" height="140%">
      <feOffset dx="0" dy="2" />
      <feGaussianBlur stdDeviation="1.2" result="s" />
      <feColorMatrix
        in="s"
        type="matrix"
        values="0 0 0 0 0
                0 0 0 0 0
                0 0 0 0 0
                0 0 0 .35 0"
      />
      <feMerge>
        <feMergeNode />
        <feMergeNode in="SourceGraphic" />
      </feMerge>
    </filter>

    <style>
      /* ---- Animations ---- */
      .bot { transform-origin: 110px 130px; animation: bob 2.4s ease-in-out infinite; }
      .screenGlow { filter: url(#glow); }
      .blink { transform-origin: 110px 88px; animation: blink 5.5s infinite; }
      .waveArm { transform-origin: 62px 124px; animation: wave 2.8s ease-in-out infinite; }
      .antenna { transform-origin: 110px 44px; animation: antenna 1.8s ease-in-out infinite; }

      @keyframes bob {
        0%, 100% { transform: translateY(0px); }
        50% { transform: translateY(-4px); }
      }

      /* Eye blink: briefly squash eyes */
      @keyframes blink {
        0%, 92%, 100% { transform: scaleY(1); }
        94% { transform: scaleY(0.12); }
        96% { transform: scaleY(1); }
      }

      /* Friendly teacher wave */
      @keyframes wave {
        0%, 55%, 100% { transform: rotate(0deg); }
        65% { transform: rotate(-18deg); }
        75% { transform: rotate(12deg); }
        85% { transform: rotate(-10deg); }
      }

      /* antenna wiggle */
      @keyframes antenna {
        0%, 100% { transform: rotate(0deg); }
        50% { transform: rotate(6deg); }
      }

      /* Optional: pause all animations by toggling this class on svg */
      .paused .bot, .paused .blink, .paused .waveArm, .paused .antenna { animation-play-state: paused; }
    </style>
  </defs>

  <!-- Ground shadow -->
  <g opacity="0.35">
    <rect x="70" y="196" width="80" height="8" rx="2" fill="#7aa7b2"/>
    <rect x="78" y="192" width="64" height="4" rx="2" fill="#7aa7b2"/>
  </g>

  <!-- BOT -->
  <g class="bot" filter="url(#shadow)">

    <!-- Antenna -->
    <g class="antenna">
      <rect x="106" y="18" width="8" height="18" fill="#cfd7e6"/>
      <rect x="104" y="16" width="12" height="4" fill="#9aa7bf"/>
      <rect x="102" y="8" width="16" height="8" fill="#cfd7e6"/>
      <rect x="106" y="10" width="8" height="4" fill="#00e5ff"/>
    </g>

    <!-- Head outer -->
    <rect x="58" y="40" width="104" height="70" rx="10" fill="#e9eef7"/>
    <!-- Head outline pixels -->
    <rect x="56" y="44" width="2" height="58" fill="#a6b3c8"/>
    <rect x="162" y="44" width="2" height="58" fill="#a6b3c8"/>
    <rect x="62" y="38" width="96" height="2" fill="#a6b3c8"/>
    <rect x="62" y="110" width="96" height="2" fill="#a6b3c8"/>

    <!-- Screen -->
    <rect x="72" y="56" width="76" height="44" rx="8" fill="#0b1020" class="screenGlow"/>
    <rect x="76" y="60" width="68" height="36" rx="7" fill="#0f1a33"/>

    <!-- Eyes (pixel style) -->
    <g class="blink">
      <rect x="90" y="74" width="10" height="8" fill="#00e5ff"/>
      <rect x="120" y="74" width="10" height="8" fill="#00e5ff"/>
      <!-- Eye highlights -->
      <rect x="92" y="76" width="2" height="2" fill="#eaffff"/>
      <rect x="122" y="76" width="2" height="2" fill="#eaffff"/>
    </g>

    <!-- Smile -->
    <rect x="104" y="86" width="12" height="2" fill="#00e5ff"/>
    <rect x="102" y="84" width="2" height="2" fill="#00e5ff"/>
    <rect x="116" y="84" width="2" height="2" fill="#00e5ff"/>

    <!-- “Teacher” badge -->
    <rect x="140" y="46" width="16" height="10" rx="2" fill="#ffd166"/>
    <rect x="142" y="48" width="12" height="2" fill="#1a2238"/>
    <rect x="142" y="52" width="8" height="2" fill="#1a2238"/>

    <!-- Neck -->
    <rect x="98" y="110" width="24" height="10" fill="#cfd7e6"/>

    <!-- Body -->
    <rect x="66" y="120" width="88" height="62" rx="12" fill="#e9eef7"/>
    <rect x="66" y="120" width="88" height="4" fill="#cfd7e6"/>

    <!-- Chest panel -->
    <rect x="88" y="136" width="44" height="28" rx="6" fill="#d7deec"/>
    <rect x="92" y="140" width="36" height="20" rx="5" fill="#0f1a33" class="screenGlow"/>

    <!-- Little “lesson” icon on chest -->
    <rect x="98" y="146" width="8" height="10" fill="#00e5ff"/>
    <rect x="112" y="146" width="8" height="10" fill="#00e5ff"/>
    <rect x="98" y="144" width="22" height="2" fill="#00e5ff"/>

    <!-- Arms -->
    <!-- Left arm (waving) -->
    <g class="waveArm">
      <rect x="46" y="132" width="24" height="14" rx="6" fill="#cfd7e6"/>
      <rect x="38" y="138" width="12" height="12" rx="4" fill="#e9eef7"/>
      <rect x="34" y="142" width="6" height="6" fill="#00e5ff"/>
    </g>

    <!-- Right arm -->
    <g>
      <rect x="150" y="132" width="24" height="14" rx="6" fill="#cfd7e6"/>
      <rect x="170" y="138" width="12" height="12" rx="4" fill="#e9eef7"/>
      <rect x="176" y="142" width="6" height="6" fill="#00e5ff"/>
    </g>

    <!-- Legs -->
    <rect x="82" y="182" width="22" height="18" rx="6" fill="#cfd7e6"/>
    <rect x="116" y="182" width="22" height="18" rx="6" fill="#cfd7e6"/>
    <!-- Feet -->
    <rect x="78" y="198" width="30" height="10" rx="4" fill="#1a2238"/>
    <rect x="112" y="198" width="30" height="10" rx="4" fill="#1a2238"/>

    <!-- Belt glow -->
    <rect x="78" y="174" width="64" height="4" fill="#00e5ff" opacity="0.75" class="screenGlow"/>
  </g>
</svg>
